<mxfile host="app.diagrams.net" agent="Mozilla/5.0 (Macintosh; Intel Mac OS X 10_15_7) AppleWebKit/537.36 (KHTML, like Gecko) Chrome/134.0.0.0 Safari/537.36" version="26.2.12">
  <diagram name="Page-1" id="2YBvvXClWsGukQMizWep">
    <mxGraphModel dx="940" dy="503" grid="1" gridSize="10" guides="1" tooltips="1" connect="1" arrows="1" fold="1" page="1" pageScale="1" pageWidth="850" pageHeight="1100" math="0" shadow="0">
      <root>
        <mxCell id="0" />
        <mxCell id="1" parent="0" />
        <mxCell id="rBuW9H_jq5mMNheMzDFq-9" value=":View&lt;span style=&quot;color: rgba(0, 0, 0, 0); font-family: monospace; font-size: 0px; text-align: start; text-wrap-mode: nowrap;&quot;&gt;%3CmxGraphModel%3E%3Croot%3E%3CmxCell%20id%3D%220%22%2F%3E%3CmxCell%20id%3D%221%22%20parent%3D%220%22%2F%3E%3CmxCell%20id%3D%222%22%20value%3D%22%3AObject%22%20style%3D%22shape%3DumlLifeline%3Bperimeter%3DlifelinePerimeter%3BwhiteSpace%3Dwrap%3Bhtml%3D1%3Bcontainer%3D0%3BdropTarget%3D0%3Bcollapsible%3D0%3BrecursiveResize%3D0%3BoutlineConnect%3D0%3BportConstraint%3Deastwest%3BnewEdgeStyle%3D%7B%26quot%3BedgeStyle%26quot%3B%3A%26quot%3BelbowEdgeStyle%26quot%3B%2C%26quot%3Belbow%26quot%3B%3A%26quot%3Bvertical%26quot%3B%2C%26quot%3Bcurved%26quot%3B%3A0%2C%26quot%3Brounded%26quot%3B%3A0%7D%3B%22%20vertex%3D%221%22%20parent%3D%221%22%3E%3CmxGeometry%20x%3D%22370%22%20y%3D%22120%22%20width%3D%22100%22%20height%3D%22300%22%20as%3D%22geometry%22%2F%3E%3C%2FmxCell%3E%3CmxCell%20id%3D%223%22%20value%3D%22%22%20style%3D%22html%3D1%3Bpoints%3D%5B%5D%3Bperimeter%3DorthogonalPerimeter%3BoutlineConnect%3D0%3BtargetShapes%3DumlLifeline%3BportConstraint%3Deastwest%3BnewEdgeStyle%3D%7B%26quot%3BedgeStyle%26quot%3B%3A%26quot%3BelbowEdgeStyle%26quot%3B%2C%26quot%3Belbow%26quot%3B%3A%26quot%3Bvertical%26quot%3B%2C%26quot%3Bcurved%26quot%3B%3A0%2C%26quot%3Brounded%26quot%3B%3A0%7D%3B%22%20vertex%3D%221%22%20parent%3D%222%22%3E%3CmxGeometry%20x%3D%2245%22%20y%3D%2270%22%20width%3D%2210%22%20height%3D%22190%22%20as%3D%22geometry%22%2F%3E%3C%2FmxCell%3E%3CmxCell%20id%3D%224%22%20value%3D%22dispatch%22%20style%3D%22html%3D1%3BverticalAlign%3Dbottom%3BstartArrow%3Doval%3BendArrow%3Dblock%3BstartSize%3D8%3BedgeStyle%3DelbowEdgeStyle%3Belbow%3Dvertical%3Bcurved%3D0%3Brounded%3D0%3B%22%20edge%3D%221%22%20parent%3D%222%22%20target%3D%223%22%3E%3CmxGeometry%20relative%3D%221%22%20as%3D%22geometry%22%3E%3CmxPoint%20x%3D%22-15%22%20y%3D%2270%22%20as%3D%22sourcePoint%22%2F%3E%3C%2FmxGeometry%3E%3C%2FmxCell%3E%3CmxCell%20id%3D%225%22%20value%3D%22%22%20style%3D%22html%3D1%3Bpoints%3D%5B%5D%3Bperimeter%3DorthogonalPerimeter%3BoutlineConnect%3D0%3BtargetShapes%3DumlLifeline%3BportConstraint%3Deastwest%3BnewEdgeStyle%3D%7B%26quot%3BedgeStyle%26quot%3B%3A%26quot%3BelbowEdgeStyle%26quot%3B%2C%26quot%3Belbow%26quot%3B%3A%26quot%3Bvertical%26quot%3B%2C%26quot%3Bcurved%26quot%3B%3A0%2C%26quot%3Brounded%26quot%3B%3A0%7D%3B%22%20vertex%3D%221%22%20parent%3D%222%22%3E%3CmxGeometry%20x%3D%2250%22%20y%3D%22120%22%20width%3D%2210%22%20height%3D%2280%22%20as%3D%22geometry%22%2F%3E%3C%2FmxCell%3E%3C%2Froot%3E%3C%2FmxGraphModel%3E&lt;/span&gt;" style="shape=umlLifeline;perimeter=lifelinePerimeter;whiteSpace=wrap;html=1;container=1;dropTarget=0;collapsible=0;recursiveResize=0;outlineConnect=0;portConstraint=eastwest;newEdgeStyle={&quot;curved&quot;:0,&quot;rounded&quot;:0};" parent="1" vertex="1">
          <mxGeometry x="570" y="110" width="100" height="1250" as="geometry" />
        </mxCell>
        <mxCell id="rBuW9H_jq5mMNheMzDFq-10" value=":Controller" style="shape=umlLifeline;perimeter=lifelinePerimeter;whiteSpace=wrap;html=1;container=1;dropTarget=0;collapsible=0;recursiveResize=0;outlineConnect=0;portConstraint=eastwest;newEdgeStyle={&quot;curved&quot;:0,&quot;rounded&quot;:0};" parent="1" vertex="1">
          <mxGeometry x="760" y="110" width="100" height="1250" as="geometry" />
        </mxCell>
        <mxCell id="rBuW9H_jq5mMNheMzDFq-12" value=":Model" style="shape=umlLifeline;perimeter=lifelinePerimeter;whiteSpace=wrap;html=1;container=1;dropTarget=0;collapsible=0;recursiveResize=0;outlineConnect=0;portConstraint=eastwest;newEdgeStyle={&quot;curved&quot;:0,&quot;rounded&quot;:0};" parent="1" vertex="1">
          <mxGeometry x="940" y="110" width="100" height="1250" as="geometry" />
        </mxCell>
        <mxCell id="uLrYTXcCRGbgXtRRE7eR-38" value="" style="html=1;points=[[0,0,0,0,5],[0,1,0,0,-5],[1,0,0,0,5],[1,1,0,0,-5]];perimeter=orthogonalPerimeter;outlineConnect=0;targetShapes=umlLifeline;portConstraint=eastwest;newEdgeStyle={&quot;curved&quot;:0,&quot;rounded&quot;:0};" parent="rBuW9H_jq5mMNheMzDFq-12" vertex="1">
          <mxGeometry x="45" y="646" width="10" height="140" as="geometry" />
        </mxCell>
        <mxCell id="uLrYTXcCRGbgXtRRE7eR-82" value="" style="html=1;points=[[0,0,0,0,5],[0,1,0,0,-5],[1,0,0,0,5],[1,1,0,0,-5]];perimeter=orthogonalPerimeter;outlineConnect=0;targetShapes=umlLifeline;portConstraint=eastwest;newEdgeStyle={&quot;curved&quot;:0,&quot;rounded&quot;:0};" parent="rBuW9H_jq5mMNheMzDFq-12" vertex="1">
          <mxGeometry x="45" y="1213" width="10" height="100" as="geometry" />
        </mxCell>
        <mxCell id="rBuW9H_jq5mMNheMzDFq-13" value="createClient()" style="html=1;verticalAlign=bottom;startArrow=oval;startFill=1;endArrow=block;startSize=8;curved=0;rounded=0;" parent="1" edge="1">
          <mxGeometry x="-0.0014" width="60" relative="1" as="geometry">
            <mxPoint x="194.99666666666675" y="180" as="sourcePoint" />
            <mxPoint x="425.33000000000004" y="180" as="targetPoint" />
            <mxPoint as="offset" />
          </mxGeometry>
        </mxCell>
        <mxCell id="uLrYTXcCRGbgXtRRE7eR-1" value=":Server" style="shape=umlLifeline;perimeter=lifelinePerimeter;whiteSpace=wrap;html=1;container=1;dropTarget=0;collapsible=0;recursiveResize=0;outlineConnect=0;portConstraint=eastwest;newEdgeStyle={&quot;curved&quot;:0,&quot;rounded&quot;:0};" parent="1" vertex="1">
          <mxGeometry x="1100" y="110" width="100" height="1250" as="geometry" />
        </mxCell>
        <mxCell id="uLrYTXcCRGbgXtRRE7eR-2" value=":Client" style="shape=umlLifeline;perimeter=lifelinePerimeter;whiteSpace=wrap;html=1;container=1;dropTarget=0;collapsible=0;recursiveResize=0;outlineConnect=0;portConstraint=eastwest;newEdgeStyle={&quot;curved&quot;:0,&quot;rounded&quot;:0};" parent="1" vertex="1">
          <mxGeometry x="375" y="110" width="100" height="1320" as="geometry" />
        </mxCell>
        <mxCell id="uLrYTXcCRGbgXtRRE7eR-3" value="Ping()" style="html=1;verticalAlign=bottom;endArrow=block;curved=0;rounded=0;" parent="1" target="uLrYTXcCRGbgXtRRE7eR-1" edge="1">
          <mxGeometry width="80" relative="1" as="geometry">
            <mxPoint x="425" y="200" as="sourcePoint" />
            <mxPoint x="649.5" y="200" as="targetPoint" />
          </mxGeometry>
        </mxCell>
        <mxCell id="uLrYTXcCRGbgXtRRE7eR-5" value="Ack()" style="html=1;verticalAlign=bottom;endArrow=block;curved=0;rounded=0;" parent="1" source="uLrYTXcCRGbgXtRRE7eR-1" edge="1">
          <mxGeometry width="80" relative="1" as="geometry">
            <mxPoint x="649.5" y="228.0000000000001" as="sourcePoint" />
            <mxPoint x="424.94444444444457" y="228.0000000000001" as="targetPoint" />
          </mxGeometry>
        </mxCell>
        <mxCell id="uLrYTXcCRGbgXtRRE7eR-6" value="LoginRequest()" style="html=1;verticalAlign=bottom;endArrow=block;curved=0;rounded=0;" parent="1" source="uLrYTXcCRGbgXtRRE7eR-1" edge="1">
          <mxGeometry x="-0.0005" width="80" relative="1" as="geometry">
            <mxPoint x="649.5" y="359.0000000000001" as="sourcePoint" />
            <mxPoint x="424.94444444444457" y="359.0000000000001" as="targetPoint" />
            <mxPoint as="offset" />
          </mxGeometry>
        </mxCell>
        <mxCell id="uLrYTXcCRGbgXtRRE7eR-8" value="TypeOfLogin()" style="html=1;verticalAlign=bottom;endArrow=block;curved=0;rounded=0;" parent="1" source="uLrYTXcCRGbgXtRRE7eR-1" edge="1">
          <mxGeometry width="80" relative="1" as="geometry">
            <mxPoint x="649.4999999999998" y="252" as="sourcePoint" />
            <mxPoint x="424.875" y="252" as="targetPoint" />
          </mxGeometry>
        </mxCell>
        <mxCell id="uLrYTXcCRGbgXtRRE7eR-9" value="response" style="endArrow=open;endSize=12;dashed=1;html=1;rounded=0;" parent="1" target="uLrYTXcCRGbgXtRRE7eR-1" edge="1">
          <mxGeometry x="0.0023" y="10" width="160" relative="1" as="geometry">
            <mxPoint x="430" y="290" as="sourcePoint" />
            <mxPoint x="590" y="290" as="targetPoint" />
            <mxPoint as="offset" />
          </mxGeometry>
        </mxCell>
        <mxCell id="uLrYTXcCRGbgXtRRE7eR-11" value="depending on the answer (RMI o Socket)&amp;nbsp;&lt;div&gt;we have a different request login&lt;/div&gt;" style="text;html=1;align=center;verticalAlign=middle;resizable=0;points=[];autosize=1;strokeColor=none;fillColor=none;" parent="1" vertex="1">
          <mxGeometry x="170" y="260" width="240" height="40" as="geometry" />
        </mxCell>
        <mxCell id="uLrYTXcCRGbgXtRRE7eR-12" value="Ack()" style="html=1;verticalAlign=bottom;endArrow=block;curved=0;rounded=0;" parent="1" source="uLrYTXcCRGbgXtRRE7eR-1" edge="1">
          <mxGeometry width="80" relative="1" as="geometry">
            <mxPoint x="649.5" y="309.0000000000001" as="sourcePoint" />
            <mxPoint x="424.94444444444457" y="309.0000000000001" as="targetPoint" />
          </mxGeometry>
        </mxCell>
        <mxCell id="uLrYTXcCRGbgXtRRE7eR-13" value="LoginData(username)" style="html=1;verticalAlign=bottom;endArrow=block;curved=0;rounded=0;" parent="1" target="uLrYTXcCRGbgXtRRE7eR-1" edge="1">
          <mxGeometry width="80" relative="1" as="geometry">
            <mxPoint x="426" y="391" as="sourcePoint" />
            <mxPoint x="650.5" y="391" as="targetPoint" />
          </mxGeometry>
        </mxCell>
        <mxCell id="uLrYTXcCRGbgXtRRE7eR-14" value="alt" style="shape=umlFrame;whiteSpace=wrap;html=1;pointerEvents=0;" parent="1" vertex="1">
          <mxGeometry x="363" y="436" width="807" height="120" as="geometry" />
        </mxCell>
        <mxCell id="uLrYTXcCRGbgXtRRE7eR-15" value="[succesfull login]" style="text;html=1;align=center;verticalAlign=middle;resizable=0;points=[];autosize=1;strokeColor=none;fillColor=none;" parent="1" vertex="1">
          <mxGeometry x="420" y="436" width="110" height="30" as="geometry" />
        </mxCell>
        <mxCell id="uLrYTXcCRGbgXtRRE7eR-16" value="LoginSuccess()" style="html=1;verticalAlign=bottom;endArrow=block;curved=0;rounded=0;" parent="1" edge="1">
          <mxGeometry x="-0.0005" width="80" relative="1" as="geometry">
            <mxPoint x="1149.5" y="486.0000000000001" as="sourcePoint" />
            <mxPoint x="425.94444444444457" y="486.0000000000001" as="targetPoint" />
            <mxPoint as="offset" />
          </mxGeometry>
        </mxCell>
        <mxCell id="uLrYTXcCRGbgXtRRE7eR-20" value="" style="endArrow=none;dashed=1;html=1;rounded=0;exitX=-0.005;exitY=0.382;exitDx=0;exitDy=0;exitPerimeter=0;entryX=1.002;entryY=0.58;entryDx=0;entryDy=0;entryPerimeter=0;" parent="1" target="uLrYTXcCRGbgXtRRE7eR-14" edge="1">
          <mxGeometry width="50" height="50" relative="1" as="geometry">
            <mxPoint x="361.29999999999995" y="506.4" as="sourcePoint" />
            <mxPoint x="701.3" y="505" as="targetPoint" />
          </mxGeometry>
        </mxCell>
        <mxCell id="uLrYTXcCRGbgXtRRE7eR-21" value="&lt;span style=&quot;color: rgb(0, 0, 0); font-family: Helvetica; font-size: 12px; font-style: normal; font-variant-ligatures: normal; font-variant-caps: normal; font-weight: 400; letter-spacing: normal; orphans: 2; text-align: center; text-indent: 0px; text-transform: none; widows: 2; word-spacing: 0px; -webkit-text-stroke-width: 0px; white-space: nowrap; background-color: rgb(251, 251, 251); text-decoration-thickness: initial; text-decoration-style: initial; text-decoration-color: initial; float: none; display: inline !important;&quot;&gt;[else]&lt;/span&gt;" style="text;whiteSpace=wrap;html=1;" parent="1" vertex="1">
          <mxGeometry x="365" y="506" width="120" height="40" as="geometry" />
        </mxCell>
        <mxCell id="uLrYTXcCRGbgXtRRE7eR-22" value="LoginFailed()" style="html=1;verticalAlign=bottom;endArrow=block;curved=0;rounded=0;" parent="1" edge="1">
          <mxGeometry x="-0.0005" width="80" relative="1" as="geometry">
            <mxPoint x="1149.5" y="537.0000000000001" as="sourcePoint" />
            <mxPoint x="425.94444444444457" y="537.0000000000001" as="targetPoint" />
            <mxPoint as="offset" />
          </mxGeometry>
        </mxCell>
        <mxCell id="uLrYTXcCRGbgXtRRE7eR-25" value="alt" style="shape=umlFrame;whiteSpace=wrap;html=1;pointerEvents=0;" parent="1" vertex="1">
          <mxGeometry x="290" y="600" width="930" height="840" as="geometry" />
        </mxCell>
        <mxCell id="uLrYTXcCRGbgXtRRE7eR-26" value="[enter in a existing game]" style="text;html=1;align=center;verticalAlign=middle;resizable=0;points=[];autosize=1;strokeColor=none;fillColor=none;" parent="1" vertex="1">
          <mxGeometry x="350" y="600" width="160" height="30" as="geometry" />
        </mxCell>
        <mxCell id="uLrYTXcCRGbgXtRRE7eR-27" value="accessGame(param)" style="html=1;verticalAlign=bottom;endArrow=block;curved=0;rounded=0;" parent="1" edge="1">
          <mxGeometry width="80" relative="1" as="geometry">
            <mxPoint x="426" y="588" as="sourcePoint" />
            <mxPoint x="1151" y="588" as="targetPoint" />
          </mxGeometry>
        </mxCell>
        <mxCell id="uLrYTXcCRGbgXtRRE7eR-29" value="" style="endArrow=open;endFill=1;endSize=12;html=1;rounded=0;" parent="1" target="uLrYTXcCRGbgXtRRE7eR-31" edge="1">
          <mxGeometry width="160" relative="1" as="geometry">
            <mxPoint x="1144.61" y="652.33" as="sourcePoint" />
            <mxPoint x="615.0039393939393" y="652.33" as="targetPoint" />
          </mxGeometry>
        </mxCell>
        <mxCell id="uLrYTXcCRGbgXtRRE7eR-30" value="listOfGames()" style="text;html=1;align=center;verticalAlign=middle;resizable=0;points=[];autosize=1;strokeColor=none;fillColor=none;" parent="1" vertex="1">
          <mxGeometry x="810" y="623" width="100" height="30" as="geometry" />
        </mxCell>
        <mxCell id="uLrYTXcCRGbgXtRRE7eR-31" value="" style="html=1;points=[[0,0,0,0,5],[0,1,0,0,-5],[1,0,0,0,5],[1,1,0,0,-5]];perimeter=orthogonalPerimeter;outlineConnect=0;targetShapes=umlLifeline;portConstraint=eastwest;newEdgeStyle={&quot;curved&quot;:0,&quot;rounded&quot;:0};" parent="1" vertex="1">
          <mxGeometry x="615" y="615" width="10" height="815" as="geometry" />
        </mxCell>
        <mxCell id="uLrYTXcCRGbgXtRRE7eR-33" value="ShowList" style="endArrow=open;endSize=12;dashed=1;html=1;rounded=0;" parent="1" source="uLrYTXcCRGbgXtRRE7eR-31" edge="1">
          <mxGeometry width="160" relative="1" as="geometry">
            <mxPoint x="470" y="663" as="sourcePoint" />
            <mxPoint x="425.0652173913045" y="663" as="targetPoint" />
          </mxGeometry>
        </mxCell>
        <mxCell id="uLrYTXcCRGbgXtRRE7eR-34" value="chooseGame()" style="html=1;verticalAlign=bottom;endArrow=block;curved=0;rounded=0;" parent="1" edge="1">
          <mxGeometry width="80" relative="1" as="geometry">
            <mxPoint x="425.02380952380963" y="695" as="sourcePoint" />
            <mxPoint x="615" y="695" as="targetPoint" />
          </mxGeometry>
        </mxCell>
        <mxCell id="uLrYTXcCRGbgXtRRE7eR-35" value="communicateGame()" style="html=1;verticalAlign=bottom;endArrow=block;curved=0;rounded=0;" parent="1" edge="1">
          <mxGeometry width="80" relative="1" as="geometry">
            <mxPoint x="625" y="706" as="sourcePoint" />
            <mxPoint x="1149.5" y="706" as="targetPoint" />
          </mxGeometry>
        </mxCell>
        <mxCell id="uLrYTXcCRGbgXtRRE7eR-36" value="alt" style="shape=umlFrame;whiteSpace=wrap;html=1;pointerEvents=0;" parent="1" vertex="1">
          <mxGeometry x="369" y="756" width="806" height="260" as="geometry" />
        </mxCell>
        <mxCell id="uLrYTXcCRGbgXtRRE7eR-37" value="[succesfull entrance]" style="text;html=1;align=center;verticalAlign=middle;resizable=0;points=[];autosize=1;strokeColor=none;fillColor=none;" parent="1" vertex="1">
          <mxGeometry x="425" y="756" width="130" height="30" as="geometry" />
        </mxCell>
        <mxCell id="uLrYTXcCRGbgXtRRE7eR-39" value="addPlayer(username)" style="html=1;verticalAlign=bottom;endArrow=block;curved=0;rounded=0;" parent="1" target="uLrYTXcCRGbgXtRRE7eR-41" edge="1">
          <mxGeometry width="80" relative="1" as="geometry">
            <mxPoint x="1149.5" y="786" as="sourcePoint" />
            <mxPoint x="995" y="786" as="targetPoint" />
          </mxGeometry>
        </mxCell>
        <mxCell id="uLrYTXcCRGbgXtRRE7eR-41" value="" style="html=1;points=[[0,0,0,0,5],[0,1,0,0,-5],[1,0,0,0,5],[1,1,0,0,-5]];perimeter=orthogonalPerimeter;outlineConnect=0;targetShapes=umlLifeline;portConstraint=eastwest;newEdgeStyle={&quot;curved&quot;:0,&quot;rounded&quot;:0};" parent="1" vertex="1">
          <mxGeometry x="805" y="756" width="10" height="260" as="geometry" />
        </mxCell>
        <mxCell id="uLrYTXcCRGbgXtRRE7eR-43" value="" style="endArrow=open;endFill=1;endSize=12;html=1;rounded=0;" parent="1" edge="1">
          <mxGeometry width="160" relative="1" as="geometry">
            <mxPoint x="815" y="808.8" as="sourcePoint" />
            <mxPoint x="985" y="808.8" as="targetPoint" />
          </mxGeometry>
        </mxCell>
        <mxCell id="uLrYTXcCRGbgXtRRE7eR-44" value="&lt;font style=&quot;font-size: 11px;&quot;&gt;addPlayer(urs)&lt;/font&gt;" style="text;html=1;align=center;verticalAlign=middle;resizable=0;points=[];autosize=1;strokeColor=none;fillColor=none;" parent="1" vertex="1">
          <mxGeometry x="850" y="784" width="100" height="30" as="geometry" />
        </mxCell>
        <mxCell id="uLrYTXcCRGbgXtRRE7eR-45" value="NotifyChanges" style="endArrow=open;endSize=12;dashed=1;html=1;rounded=0;" parent="1" edge="1">
          <mxGeometry width="160" relative="1" as="geometry">
            <mxPoint x="820" y="832" as="sourcePoint" />
            <mxPoint x="1149.5" y="832" as="targetPoint" />
          </mxGeometry>
        </mxCell>
        <mxCell id="uLrYTXcCRGbgXtRRE7eR-46" value="" style="endArrow=open;endFill=1;endSize=12;html=1;rounded=0;" parent="1" edge="1">
          <mxGeometry width="160" relative="1" as="geometry">
            <mxPoint x="1149.5" y="864" as="sourcePoint" />
            <mxPoint x="624.9999999999998" y="864" as="targetPoint" />
          </mxGeometry>
        </mxCell>
        <mxCell id="uLrYTXcCRGbgXtRRE7eR-47" value="modifyView()" style="text;html=1;align=center;verticalAlign=middle;resizable=0;points=[];autosize=1;strokeColor=none;fillColor=none;" parent="1" vertex="1">
          <mxGeometry x="820" y="841" width="90" height="30" as="geometry" />
        </mxCell>
        <mxCell id="uLrYTXcCRGbgXtRRE7eR-48" value="" style="endArrow=open;endFill=1;endSize=12;html=1;rounded=0;" parent="1" edge="1">
          <mxGeometry width="160" relative="1" as="geometry">
            <mxPoint x="614.9999999999998" y="881" as="sourcePoint" />
            <mxPoint x="424.95945945945937" y="881" as="targetPoint" />
          </mxGeometry>
        </mxCell>
        <mxCell id="uLrYTXcCRGbgXtRRE7eR-49" value="show()" style="text;html=1;align=center;verticalAlign=middle;resizable=0;points=[];autosize=1;strokeColor=none;fillColor=none;" parent="1" vertex="1">
          <mxGeometry x="495" y="856" width="60" height="30" as="geometry" />
        </mxCell>
        <mxCell id="uLrYTXcCRGbgXtRRE7eR-50" value="" style="endArrow=none;dashed=1;html=1;rounded=0;exitX=0.004;exitY=0.458;exitDx=0;exitDy=0;exitPerimeter=0;entryX=0.997;entryY=0.46;entryDx=0;entryDy=0;entryPerimeter=0;" parent="1" edge="1">
          <mxGeometry width="50" height="50" relative="1" as="geometry">
            <mxPoint x="372.22399999999993" y="896.72" as="sourcePoint" />
            <mxPoint x="1172.5819999999999" y="897.4000000000001" as="targetPoint" />
          </mxGeometry>
        </mxCell>
        <mxCell id="uLrYTXcCRGbgXtRRE7eR-51" value="[else]" style="text;html=1;align=center;verticalAlign=middle;resizable=0;points=[];autosize=1;strokeColor=none;fillColor=none;" parent="1" vertex="1">
          <mxGeometry x="365" y="865" width="50" height="30" as="geometry" />
        </mxCell>
        <mxCell id="uLrYTXcCRGbgXtRRE7eR-52" value="addPlayer(username)" style="html=1;verticalAlign=bottom;endArrow=block;curved=0;rounded=0;" parent="1" edge="1">
          <mxGeometry width="80" relative="1" as="geometry">
            <mxPoint x="1150.5" y="918" as="sourcePoint" />
            <mxPoint x="816" y="918" as="targetPoint" />
          </mxGeometry>
        </mxCell>
        <mxCell id="uLrYTXcCRGbgXtRRE7eR-54" value="NotifyError" style="endArrow=open;endSize=12;dashed=1;html=1;rounded=0;" parent="1" edge="1">
          <mxGeometry width="160" relative="1" as="geometry">
            <mxPoint x="819" y="942" as="sourcePoint" />
            <mxPoint x="1148.5" y="942" as="targetPoint" />
          </mxGeometry>
        </mxCell>
        <mxCell id="uLrYTXcCRGbgXtRRE7eR-55" value="" style="endArrow=open;endFill=1;endSize=12;html=1;rounded=0;" parent="1" edge="1">
          <mxGeometry width="160" relative="1" as="geometry">
            <mxPoint x="1151.5" y="984" as="sourcePoint" />
            <mxPoint x="626.9999999999998" y="984" as="targetPoint" />
          </mxGeometry>
        </mxCell>
        <mxCell id="uLrYTXcCRGbgXtRRE7eR-56" value="communicateToPlayer(message)" style="text;html=1;align=center;verticalAlign=middle;resizable=0;points=[];autosize=1;strokeColor=none;fillColor=none;" parent="1" vertex="1">
          <mxGeometry x="803" y="956" width="200" height="30" as="geometry" />
        </mxCell>
        <mxCell id="uLrYTXcCRGbgXtRRE7eR-57" value="" style="endArrow=open;endFill=1;endSize=12;html=1;rounded=0;" parent="1" edge="1">
          <mxGeometry width="160" relative="1" as="geometry">
            <mxPoint x="615" y="1001" as="sourcePoint" />
            <mxPoint x="424.875" y="1001" as="targetPoint" />
          </mxGeometry>
        </mxCell>
        <mxCell id="uLrYTXcCRGbgXtRRE7eR-58" value="error(message)" style="text;html=1;align=center;verticalAlign=middle;resizable=0;points=[];autosize=1;strokeColor=none;fillColor=none;" parent="1" vertex="1">
          <mxGeometry x="475" y="976" width="110" height="30" as="geometry" />
        </mxCell>
        <mxCell id="uLrYTXcCRGbgXtRRE7eR-61" value="" style="endArrow=none;dashed=1;html=1;rounded=0;exitX=-0.001;exitY=0.511;exitDx=0;exitDy=0;exitPerimeter=0;entryX=0.996;entryY=0.51;entryDx=0;entryDy=0;entryPerimeter=0;" parent="1" edge="1">
          <mxGeometry width="50" height="50" relative="1" as="geometry">
            <mxPoint x="289.06999999999994" y="1065.2399999999998" as="sourcePoint" />
            <mxPoint x="1216.2799999999997" y="1064.3999999999999" as="targetPoint" />
          </mxGeometry>
        </mxCell>
        <mxCell id="uLrYTXcCRGbgXtRRE7eR-62" value="[create new game]" style="text;html=1;align=center;verticalAlign=middle;resizable=0;points=[];autosize=1;strokeColor=none;fillColor=none;" parent="1" vertex="1">
          <mxGeometry x="290" y="1070" width="120" height="30" as="geometry" />
        </mxCell>
        <mxCell id="uLrYTXcCRGbgXtRRE7eR-70" value="&lt;span style=&quot;background-color: rgb(251, 251, 251);&quot;&gt;&lt;font style=&quot;font-size: 11px;&quot;&gt;askNumbersOfPlayers()&lt;/font&gt;&lt;/span&gt;" style="html=1;verticalAlign=bottom;endArrow=block;curved=0;rounded=0;" parent="1" edge="1">
          <mxGeometry width="80" relative="1" as="geometry">
            <mxPoint x="1149.5" y="1152" as="sourcePoint" />
            <mxPoint x="625" y="1152" as="targetPoint" />
          </mxGeometry>
        </mxCell>
        <mxCell id="uLrYTXcCRGbgXtRRE7eR-72" value="showMessage(message)" style="html=1;verticalAlign=bottom;endArrow=block;curved=0;rounded=0;" parent="1" edge="1">
          <mxGeometry width="80" relative="1" as="geometry">
            <mxPoint x="615" y="1162" as="sourcePoint" />
            <mxPoint x="425.12264150943383" y="1162" as="targetPoint" />
          </mxGeometry>
        </mxCell>
        <mxCell id="uLrYTXcCRGbgXtRRE7eR-74" value="response" style="endArrow=open;endSize=12;dashed=1;html=1;rounded=0;" parent="1" edge="1">
          <mxGeometry width="160" relative="1" as="geometry">
            <mxPoint x="425" y="1197" as="sourcePoint" />
            <mxPoint x="615" y="1197" as="targetPoint" />
          </mxGeometry>
        </mxCell>
        <mxCell id="uLrYTXcCRGbgXtRRE7eR-75" value="loop" style="shape=umlFrame;whiteSpace=wrap;html=1;pointerEvents=0;" parent="1" vertex="1">
          <mxGeometry x="370" y="1106" width="790" height="117" as="geometry" />
        </mxCell>
        <mxCell id="uLrYTXcCRGbgXtRRE7eR-77" value="numberOfPlayer" style="endArrow=open;endSize=12;dashed=1;html=1;rounded=0;" parent="1" edge="1">
          <mxGeometry x="-0.0007" width="160" relative="1" as="geometry">
            <mxPoint x="625" y="1207" as="sourcePoint" />
            <mxPoint x="1149.4999999999995" y="1207" as="targetPoint" />
            <mxPoint as="offset" />
          </mxGeometry>
        </mxCell>
        <mxCell id="uLrYTXcCRGbgXtRRE7eR-78" value="[until the number is valid]" style="text;html=1;align=center;verticalAlign=middle;resizable=0;points=[];autosize=1;strokeColor=none;fillColor=none;" parent="1" vertex="1">
          <mxGeometry x="420" y="1106" width="160" height="30" as="geometry" />
        </mxCell>
        <mxCell id="uLrYTXcCRGbgXtRRE7eR-79" value="" style="html=1;points=[[0,0,0,0,5],[0,1,0,0,-5],[1,0,0,0,5],[1,1,0,0,-5]];perimeter=orthogonalPerimeter;outlineConnect=0;targetShapes=umlLifeline;portConstraint=eastwest;newEdgeStyle={&quot;curved&quot;:0,&quot;rounded&quot;:0};" parent="1" vertex="1">
          <mxGeometry x="805" y="1223" width="10" height="200" as="geometry" />
        </mxCell>
        <mxCell id="uLrYTXcCRGbgXtRRE7eR-80" value="createNewGame()" style="html=1;verticalAlign=bottom;endArrow=block;curved=0;rounded=0;" parent="1" edge="1">
          <mxGeometry width="80" relative="1" as="geometry">
            <mxPoint x="1149.5" y="1279" as="sourcePoint" />
            <mxPoint x="815" y="1279" as="targetPoint" />
          </mxGeometry>
        </mxCell>
        <mxCell id="uLrYTXcCRGbgXtRRE7eR-81" value="idGame" style="endArrow=open;endSize=12;dashed=1;html=1;rounded=0;" parent="1" edge="1">
          <mxGeometry x="0.0001" width="160" relative="1" as="geometry">
            <mxPoint x="815" y="1303" as="sourcePoint" />
            <mxPoint x="1149.5" y="1302.9999999999998" as="targetPoint" />
            <mxPoint as="offset" />
          </mxGeometry>
        </mxCell>
        <mxCell id="uLrYTXcCRGbgXtRRE7eR-83" value="createModel()" style="html=1;verticalAlign=bottom;endArrow=block;curved=0;rounded=0;" parent="1" edge="1">
          <mxGeometry width="80" relative="1" as="geometry">
            <mxPoint x="815" y="1334" as="sourcePoint" />
            <mxPoint x="985" y="1334" as="targetPoint" />
          </mxGeometry>
        </mxCell>
        <mxCell id="uLrYTXcCRGbgXtRRE7eR-85" value="create model initialize only one player" style="text;html=1;align=center;verticalAlign=middle;resizable=0;points=[];autosize=1;strokeColor=none;fillColor=none;" parent="1" vertex="1">
          <mxGeometry x="1220" y="1195" width="220" height="30" as="geometry" />
        </mxCell>
        <mxCell id="uLrYTXcCRGbgXtRRE7eR-86" value="return" style="endArrow=open;endSize=12;dashed=1;html=1;rounded=0;" parent="1" edge="1">
          <mxGeometry x="0.0015" width="160" relative="1" as="geometry">
            <mxPoint x="985" y="1358" as="sourcePoint" />
            <mxPoint x="815" y="1358" as="targetPoint" />
            <mxPoint as="offset" />
          </mxGeometry>
        </mxCell>
        <mxCell id="uLrYTXcCRGbgXtRRE7eR-87" value="" style="endArrow=open;endFill=1;endSize=12;html=1;rounded=0;" parent="1" edge="1">
          <mxGeometry width="160" relative="1" as="geometry">
            <mxPoint x="803" y="1372.86" as="sourcePoint" />
            <mxPoint x="625" y="1372.86" as="targetPoint" />
          </mxGeometry>
        </mxCell>
        <mxCell id="uLrYTXcCRGbgXtRRE7eR-88" value="changeView" style="edgeLabel;html=1;align=center;verticalAlign=middle;resizable=0;points=[];" parent="uLrYTXcCRGbgXtRRE7eR-87" vertex="1" connectable="0">
          <mxGeometry x="0.326" y="1" relative="1" as="geometry">
            <mxPoint x="35" y="-11" as="offset" />
          </mxGeometry>
        </mxCell>
        <mxCell id="uLrYTXcCRGbgXtRRE7eR-89" value="" style="endArrow=open;endFill=1;endSize=12;html=1;rounded=0;" parent="1" edge="1">
          <mxGeometry width="160" relative="1" as="geometry">
            <mxPoint x="615" y="1382.86" as="sourcePoint" />
            <mxPoint x="424.8103448275863" y="1382.86" as="targetPoint" />
          </mxGeometry>
        </mxCell>
        <mxCell id="uLrYTXcCRGbgXtRRE7eR-90" value="showView" style="edgeLabel;html=1;align=center;verticalAlign=middle;resizable=0;points=[];" parent="uLrYTXcCRGbgXtRRE7eR-89" vertex="1" connectable="0">
          <mxGeometry x="0.326" y="1" relative="1" as="geometry">
            <mxPoint x="35" y="-11" as="offset" />
          </mxGeometry>
        </mxCell>
        <mxCell id="uLrYTXcCRGbgXtRRE7eR-91" value="loop" style="shape=umlFrame;whiteSpace=wrap;html=1;pointerEvents=0;" parent="1" vertex="1">
          <mxGeometry x="369" y="1233" width="791" height="200" as="geometry" />
        </mxCell>
        <mxCell id="uLrYTXcCRGbgXtRRE7eR-92" value="[until the game is created]" style="text;html=1;align=center;verticalAlign=middle;resizable=0;points=[];autosize=1;strokeColor=none;fillColor=none;" parent="1" vertex="1">
          <mxGeometry x="420" y="1233" width="160" height="30" as="geometry" />
        </mxCell>
        <mxCell id="7n1Iie6G5p8JxJWSJT1o-1" value="loop" style="shape=umlFrame;whiteSpace=wrap;html=1;pointerEvents=0;" parent="1" vertex="1">
          <mxGeometry x="290" y="400" width="930" height="170" as="geometry" />
        </mxCell>
        <mxCell id="7n1Iie6G5p8JxJWSJT1o-2" value="[until login is succesfull]" style="text;html=1;align=center;verticalAlign=middle;resizable=0;points=[];autosize=1;strokeColor=none;fillColor=none;" parent="1" vertex="1">
          <mxGeometry x="342" y="400" width="150" height="30" as="geometry" />
        </mxCell>
        <mxCell id="7n1Iie6G5p8JxJWSJT1o-3" value="loop" style="shape=umlFrame;whiteSpace=wrap;html=1;pointerEvents=0;" parent="1" vertex="1">
          <mxGeometry x="300" y="710" width="900" height="340" as="geometry" />
        </mxCell>
        <mxCell id="7n1Iie6G5p8JxJWSJT1o-4" value="[until success]" style="text;html=1;align=center;verticalAlign=middle;resizable=0;points=[];autosize=1;strokeColor=none;fillColor=none;" parent="1" vertex="1">
          <mxGeometry x="360" y="710" width="100" height="30" as="geometry" />
        </mxCell>
      </root>
    </mxGraphModel>
  </diagram>
</mxfile>
